<svg xmlns="http://www.w3.org/2000/svg"  viewBox="0 0 24 24" width="50px" height="50px"><path d="M17.085,15.468c0-0.705-0.71-1.189-1.366-0.931l-2.612,1.027c-0.711,0.28-1.503,0.277-2.212-0.006l-2.524-1.01 C7.715,14.286,7,14.77,7,15.477v4.812c0,0.08,0.035,0.155,0.095,0.207l2.072,1.78C9.712,22.743,10.405,23,11.122,23h1.726 c0.71,0,1.396-0.252,1.938-0.71l2.1-1.778c0.078-0.066,0.124-0.163,0.125-0.265L17.085,15.468z" opacity=".35"/><path d="M19.771,9.094l-0.664-7.588c-0.051-0.51-0.702-0.692-1.011-0.283L16.13,4.828C15.054,4.316,13.602,4,12,4 c-1.603,0-3.055,0.316-4.131,0.828L5.866,1.207c-0.31-0.406-0.957-0.223-1.008,0.286L4.195,9.069 c-0.129,1.278-0.035,2.569,0.276,3.815l1.052,4.208c0.315,1.26,1.54,3.3,1.477,3.211v-4.824c0-0.707,0.715-1.191,1.371-0.928 l2.524,1.01c0.71,0.284,1.501,0.286,2.212,0.006l2.612-1.027c0.656-0.258,1.366,0.226,1.366,0.931l-0.074,4.791 c0.68-0.977,1.187-2.066,1.471-3.225l1.024-4.173C19.808,11.629,19.898,10.355,19.771,9.094z M8.5,13C7.672,13,7,12.328,7,11.5 c0-0.322,0.103-0.618,0.276-0.862l2.645,1.322C9.725,12.562,9.167,13,8.5,13z M15.421,13c-0.667,0-1.225-0.438-1.421-1.04 l2.645-1.322c0.172,0.244,0.276,0.541,0.276,0.862C16.921,12.328,16.249,13,15.421,13z"/><path d="M7.276,10.638C7.103,10.882,7,11.178,7,11.5C7,12.328,7.672,13,8.5,13c0.667,0,1.225-0.438,1.421-1.04L7.276,10.638z" opacity=".35"/><path d="M16.645,10.638c0.172,0.244,0.276,0.541,0.276,0.862c0,0.828-0.672,1.5-1.5,1.5c-0.667,0-1.225-0.438-1.421-1.04 L16.645,10.638z" opacity=".35"/><path d="M13.999,20c-0.15,0-0.303-0.034-0.446-0.105c-0.973-0.486-2.133-0.486-3.105,0c-0.496,0.246-1.095,0.047-1.342-0.447 c-0.247-0.494-0.047-1.095,0.447-1.342c1.532-0.766,3.362-0.766,4.895,0c0.494,0.247,0.694,0.848,0.447,1.342 C14.719,19.798,14.366,20,13.999,20z"/></svg>