<svg xmlns="http://www.w3.org/2000/svg"  viewBox="0 0 24 24" width="50px" height="50px"><path d="M19,9h-1V8.618c0-0.743-0.782-1.227-1.447-0.894l-3.008,1.504c-0.886,0.443-1.312,1.471-0.999,2.411	c0.044,0.132,0.12,0.245,0.188,0.362h-1.468c0.068-0.117,0.144-0.229,0.188-0.362c0.313-0.94-0.112-1.968-0.999-2.411L7.447,7.724	C6.782,7.391,6,7.875,6,8.618V9H5c-0.552,0-1,0.448-1,1v1c0,0.552,0.448,1,1,1h1.275c0.315,0.535,0.87,0.912,1.52,0.979	C7.306,13.513,7,14.219,7,15v2.213C8.271,19.364,10.04,21,12,21c1.96,0,3.729-1.636,5-3.787V15c0-0.781-0.306-1.487-0.796-2.021	c0.65-0.067,1.206-0.444,1.52-0.979H19c0.552,0,1-0.448,1-1v-1C20,9.448,19.552,9,19,9z" opacity=".35"/><path d="M12,21c-1.489,0-2.866-0.946-4-2.343V21c0,1.105,0.895,2,2,2h4c1.105,0,2-0.895,2-2v-2.343C14.866,20.054,13.489,21,12,21z"/><circle cx="9" cy="11" r="1"/><circle cx="15" cy="11" r="1"/><path d="M13,18h-2c-0.552,0-1-0.448-1-1v0c0-0.552,0.448-1,1-1h2c0.552,0,1,0.448,1,1v0C14,17.552,13.552,18,13,18z"/><path d="M11.102,20.873c-0.176-0.045-0.353-0.091-0.525-0.16C10.749,20.782,10.926,20.828,11.102,20.873z"/><path d="M8.579,19.307c-0.183-0.187-0.363-0.383-0.536-0.593C8.216,18.923,8.395,19.12,8.579,19.307z"/><path d="M18.876,12h-1.151c-0.315,0.535-0.87,0.912-1.52,0.979C16.694,13.513,17,14.219,17,15v2.212 C17.948,15.608,18.616,13.717,18.876,12z"/><path d="M8.628,19.36c0.173,0.173,0.352,0.331,0.534,0.481C8.98,19.691,8.801,19.534,8.628,19.36z"/><path d="M6,9V8.618c0-0.743,0.782-1.227,1.447-0.894l3.008,1.504c0.886,0.443,1.312,1.471,0.999,2.411 c-0.044,0.132-0.12,0.245-0.188,0.362h1.468c-0.068-0.117-0.144-0.229-0.188-0.362c-0.313-0.94,0.112-1.968,0.999-2.411 l3.008-1.504C17.218,7.391,18,7.875,18,8.618V9h0.889l-0.774-6.966c-0.046-0.417-0.554-0.595-0.85-0.298l-2.087,2.087 C14.223,3.301,13.145,3,12,3S9.777,3.301,8.823,3.823L6.736,1.736c-0.296-0.296-0.804-0.118-0.85,0.298L5.111,9H6z"/><path d="M13.423,20.713c-0.172,0.069-0.349,0.115-0.525,0.16C13.074,20.828,13.251,20.782,13.423,20.713z"/><path d="M6.275,12H5.124c0.26,1.717,0.927,3.607,1.876,5.213V15c0-0.781,0.306-1.487,0.796-2.021 C7.145,12.912,6.59,12.535,6.275,12z"/><path d="M14.839,19.841c0.182-0.15,0.361-0.308,0.534-0.481C15.199,19.534,15.02,19.691,14.839,19.841z"/><path d="M14.753,19.917c-0.17,0.136-0.345,0.253-0.522,0.366C14.407,20.17,14.583,20.053,14.753,19.917z"/><path d="M14.101,20.372c-0.166,0.1-0.337,0.178-0.508,0.256C13.764,20.551,13.935,20.472,14.101,20.372z"/><path d="M15.421,19.307c0.184-0.187,0.363-0.384,0.536-0.594C15.784,18.923,15.604,19.12,15.421,19.307z"/><path d="M12,21c-0.244,0-0.484-0.026-0.721-0.074C11.516,20.974,11.756,21,12,21z"/><path d="M9.247,19.917c0.169,0.135,0.343,0.251,0.519,0.364C9.591,20.168,9.416,20.052,9.247,19.917z"/><path d="M12,21c0.244,0,0.484-0.026,0.721-0.074C12.484,20.974,12.244,21,12,21z"/><path d="M9.899,20.372c0.166,0.099,0.336,0.178,0.507,0.255C10.235,20.55,10.064,20.472,9.899,20.372z"/></svg>