<svg xmlns="http://www.w3.org/2000/svg"  viewBox="0 0 24 24" width="50px" height="50px"><path d="M21.971,14.583C21.985,14.39,22,14.197,22,14c0-4.418,0-10-8-10C7,4,6,9.582,6,14s3.582,8,8,8 c3.173,0,5.907-1.852,7.2-4.53c0.097,0.02,0.197,0.03,0.3,0.03c0.828,0,1.5-0.672,1.5-1.5C23,15.337,22.567,14.781,21.971,14.583z" opacity=".35"/><circle cx="17.5" cy="14.5" r="1.5"/><path d="M10.91,11H7.235c-1.117,0-1.989,0.911-1.988,2H4.5C4.225,13,4,12.776,4,12.5c0-1.623,1.117-2.98,2.618-3.374	C6.98,7.953,7.535,6.866,8.392,6H7.5C3.916,6,1,8.916,1,12.5C1,14.43,2.57,16,4.5,16h1.056l0.128,1.149	c0.154,1.383,1.638,2.19,2.882,1.568l3.726-1.863C13.339,16.331,14,15.261,14,14.09C14,12.383,12.616,11,10.91,11z M10.5,16	C9.672,16,9,15.328,9,14.5S9.672,13,10.5,13s1.5,0.672,1.5,1.5S11.328,16,10.5,16z"/></svg>