<svg xmlns="http://www.w3.org/2000/svg"  viewBox="0 0 24 24" width="50px" height="50px"><path d="M19,12c0-4.971-3.134-8-7-8s-7,3.029-7,8c0,2.815,1.007,4.796,2.581,6.59c0.27,0.307,0.486,0.659,0.618,1.046l0.341,1.006 C8.815,21.454,9.577,22,10.434,22h3.132c0.857,0,1.619-0.546,1.894-1.358l0.341-1.006c0.131-0.387,0.348-0.739,0.618-1.046 C17.993,16.796,19,14.815,19,12z" opacity=".35"/><path d="M13.999,19c-0.15,0-0.303-0.034-0.446-0.105c-0.973-0.486-2.133-0.486-3.105,0c-0.493,0.244-1.094,0.047-1.342-0.447 c-0.247-0.494-0.047-1.095,0.447-1.342c1.531-0.766,3.363-0.766,4.895,0c0.494,0.247,0.694,0.848,0.447,1.342 C14.719,18.798,14.366,19,13.999,19z"/><path d="M5,16L5,16c-1.105,0-2-0.895-2-2v-2c0-1.105,0.895-2,2-2h0V16z" opacity=".35"/><path d="M19,16L19,16c1.105,0,2-0.895,2-2v-2c0-1.105-0.895-2-2-2h0V16z" opacity=".35"/><path d="M18.923,20l0.058-5.267C19.587,14.389,20,13.746,20,13c0-0.288,0-1.607,0-2c0-5-3-6-3-6l1-1C11,1,6,5,6,5	C4.895,5,4,5.895,4,7v3.277C4.295,10.106,4.634,10,5,10v1.277C4.405,11.624,4,12.262,4,13c0,0.74,0.406,1.378,1.003,1.724L5.013,20	L3,22h1h6.434c-0.857,0-1.619-0.546-1.894-1.358l-0.341-1.006c-0.131-0.387-0.348-0.739-0.618-1.046	c-0.969-1.104-1.716-2.285-2.152-3.683C5.611,14.962,5.8,15,6,15h12c0.2,0,0.389-0.038,0.571-0.093	c-0.436,1.398-1.183,2.578-2.152,3.683c-0.27,0.307-0.486,0.659-0.618,1.046l-0.341,1.006C15.185,21.454,14.423,22,13.566,22H20h1	L18.923,20z M6,9.103C6,7.979,6.919,6.981,8.043,7c0.986,0.017,1.889,0.626,2.21,1.561c0.507,1.476,1.706,2.15,2.955,2.438H6V9.103z M17,14H7c-0.552,0-1-0.448-1-1c0-0.552,0.448-1,1-1h10c0.552,0,1,0.448,1,1C18,13.552,17.552,14,17,14z"/></svg>