<svg xmlns="http://www.w3.org/2000/svg"  viewBox="0 0 24 24" width="50px" height="50px"><path d="M19.905,11.226C19.962,10.679,20,10.138,20,9.619C20,4.359,16.418,2,12,2S4,4.359,4,9.619	c0,0.519,0.038,1.06,0.095,1.607C3.448,11.557,3,12.223,3,13c0,1.073,0.939,1.951,2,2c0.029,0.003-0.014,0.584,0,1	c0.048,1.467,0.699,2.559,1.845,3.476l1.364,1.091C9.369,21.495,10.809,22,12.293,22h0c1.733,0,3.396-0.689,4.622-1.914l0.643-0.643	c0.91-0.91,1.433-2.138,1.463-3.426C19.034,15.456,18.964,15.004,19,15c1,0,2-0.927,2-2C21,12.223,20.552,11.557,19.905,11.226z" opacity=".35"/><path d="M9.5,14C8.672,14,8,13.328,8,12.5S8.672,11,9.5,11c0.589,0,1.094,0.343,1.339,0.837c-0.001-0.301-0.03-0.602-0.104-0.896	l-0.195-0.779c-0.337-1.347-1.338-2.428-2.655-2.867c-0.489-0.163-1.018,0.101-1.181,0.59L5.917,10.25	c-0.572,1.715-0.235,3.602,0.894,5.013l1.102,1.378c0.469,0.586,1.4,0.42,1.637-0.292l0.899-2.697C10.19,13.866,9.862,14,9.5,14z"/><path d="M18.083,10.25l-0.788-2.365c-0.163-0.489-0.692-0.753-1.181-0.59c-1.317,0.439-2.318,1.52-2.655,2.867l-0.195,0.779	c-0.074,0.295-0.103,0.596-0.104,0.896C13.406,11.343,13.911,11,14.5,11c0.828,0,1.5,0.672,1.5,1.5S15.328,14,14.5,14	c-0.362,0-0.69-0.134-0.949-0.347l0.899,2.697c0.237,0.712,1.168,0.878,1.637,0.292l1.102-1.378	C18.318,13.852,18.655,11.965,18.083,10.25z"/></svg>