<svg xmlns="http://www.w3.org/2000/svg"  viewBox="0 0 24 24" width="50px" height="50px"><path d="M18,9.088V4H6v5.088c-0.996,0.292-1.646,1.326-1.379,2.397l0.136,0.545C4.919,12.674,5,13.336,5,14c0,0.552,0.448,1,1,1 v2.5c0,0.944,0.445,1.833,1.2,2.4l1.2,0.9C9.439,21.579,10.702,22,12,22s2.561-0.421,3.6-1.2l1.2-0.9 c0.755-0.567,1.2-1.456,1.2-2.4V15c0.552,0,1-0.448,1-1c0-0.664,0.081-1.326,0.243-1.97l0.136-0.545 C19.646,10.414,18.996,9.38,18,9.088z" opacity=".35"/><path d="M13.999,19c-0.15,0-0.303-0.034-0.446-0.105c-0.973-0.486-2.133-0.486-3.105,0c-0.496,0.246-1.094,0.047-1.342-0.447 c-0.247-0.494-0.047-1.095,0.447-1.342c1.532-0.766,3.362-0.766,4.895,0c0.494,0.247,0.694,0.848,0.447,1.342 C14.719,18.798,14.366,19,13.999,19z"/><path d="M12,15.196c-1.159,0-2.318-0.337-3.329-1.012l-0.78-0.521c-0.919-0.612-1.168-1.854-0.556-2.773 c0.612-0.919,1.854-1.169,2.773-0.555l0.781,0.521c0.674,0.449,1.544,0.449,2.219,0l0.782-0.521 c0.918-0.614,2.16-0.364,2.773,0.555c0.612,0.92,0.364,2.161-0.556,2.773l-0.781,0.521C14.317,14.859,13.159,15.196,12,15.196z"/><path d="M16.274,3h-0.58C15.005,1.837,13.174,1,11,1C8.482,1,6.42,2.12,6.072,3.573C5.424,4.071,5,4.846,5,5.726v4.043	c0.252-0.317,0.595-0.562,1-0.681c0.917-0.499,1.639-1.27,2.099-2.186c0.129,0.681,0.43,1.559,1.149,1.926	C9.542,8.978,9.878,8.729,9.85,8.4c-0.033-0.395,0.043-0.931,0.51-1.438C10.572,6.978,10.781,7,11,7	c1.913,0,3.555-0.652,4.396-1.599l0.089,0.381C15.812,7.193,16.728,8.396,18,9.088c0.405,0.119,0.748,0.364,1,0.681V5.726	C19,4.22,17.779,3,16.274,3z"/></svg>