<svg xmlns="http://www.w3.org/2000/svg"  viewBox="0 0 24 24" width="50px" height="50px"><path d="M12,23L12,23c-1.82,0-3.465-1.085-4.182-2.757L6,16l-0.735-2.205C4.427,11.281,4,8.649,4,6v0	l0.874-0.187c0.596-0.128,1.213,0.086,1.602,0.555l0,0c0.297,0.358,0.818,0.43,1.201,0.165l0.475-0.328	c1.222-0.844,2.592-1.449,4.038-1.785l0,0c1.163-0.27,2.18-0.974,2.843-1.968l0,0c0.553-0.83,1.638-1.118,2.53-0.672l1.717,0.858	C19.721,2.86,20,3.312,20,3.807v0c0,4.102-0.661,8.177-1.958,12.068L18,16l-1.818,4.243C15.465,21.915,13.82,23,12,23z" opacity=".35"/><ellipse cx="9" cy="14.5" rx="2" ry="1.5"/><ellipse cx="15" cy="14.5" rx="2" ry="1.5"/><path d="M12,21L12,21c-1.105,0-2-0.895-2-2v0h4v0C14,20.105,13.105,21,12,21z"/><path d="M11.021,4.76c-1.12,0.367-2.014,0.901-2.163,1C8.91,5.11,8.835,4.514,8.68,4H9c1.105,0,2-0.895,2-2c0-0.552-0.448-1-1-1H9	C8.399,1,7.867,1.27,7.5,1.69C7.133,1.27,6.601,1,6,1H5C4.448,1,4,1.448,4,2c0,1.105,0.895,2,2,2h0.509	C6.77,4.425,7.106,5.304,6.647,6.51l0,0c-0.06-0.043-0.123-0.083-0.172-0.142C6.087,5.899,5.469,5.685,4.874,5.813L4,6	c0,0.541,0.03,1.08,0.065,1.619c0.017,0.235,0.032,0.469,0.056,0.703C4.14,8.522,4.17,8.72,4.193,8.919	c0.079,0.63,0.175,1.258,0.299,1.882c0,0,0,0,0,0c0.947-0.221,2.135-0.688,2.914-1.687c0.459-0.589,1.152-0.922,1.898-0.958	C10.242,8.109,10.715,7.756,11,6C11.033,5.797,11.03,5.238,11.021,4.76z"/><path d="M19.278,2.639l-1.717-0.858c-0.796-0.398-1.72-0.197-2.321,0.423c-0.002-0.001-0.003-0.002-0.005-0.003	c-0.073,0.078-0.143,0.161-0.204,0.253c-0.025,0.038-0.056,0.07-0.083,0.107c-0.126,0.174-0.261,0.34-0.407,0.495	c-0.407,0.43-0.887,0.782-1.422,1.034C13.349,4.624,13.881,5,14.5,5c0.768,0,1.394-0.579,1.482-1.323	c0.113,0.035,0.214,0.08,0.332,0.11c0.795,0.202,1.275,0.974,1.089,1.772c-0.321,1.375-0.263,3.366,2.037,4.73	c0.369-2.143,0.561-4.315,0.56-6.496C20,3.304,19.715,2.858,19.278,2.639z"/></svg>