<svg xmlns="http://www.w3.org/2000/svg"  viewBox="0 0 24 24" width="50px" height="50px"><path d="M17,10V7V5.5C17,4.672,16.328,4,15.5,4h0C14.672,4,14,4.672,14,5.5V6c0,1.105-0.895,2-2,2h0c-1.105,0-2-0.895-2-2V5.5 C10,4.672,9.328,4,8.5,4h0C7.672,4,7,4.672,7,5.5V7v3l-0.293,0.293C6.254,10.746,6,11.36,6,12v0c0,0.64,0.254,1.254,0.707,1.707 l0.707,0.707C7.789,14.789,8,15.298,8,15.828v2.757C8,19.367,8.633,20,9.414,20h0c0.375,0,0.735-0.149,1-0.414l0,0 C10.789,19.211,11.298,19,11.828,19h0.343c0.53,0,1.039,0.211,1.414,0.586l0,0c0.265,0.265,0.625,0.414,1,0.414h0 C15.367,20,16,19.367,16,18.586v-2.757c0-0.53,0.211-1.039,0.586-1.414l0.707-0.707C17.746,13.254,18,12.64,18,12v0 c0-0.64-0.254-1.254-0.707-1.707L17,10z" opacity=".35"/><path d="M10,12H9c-0.552,0-1-0.448-1-1s0.448-1,1-1h1c0.552,0,1,0.448,1,1S10.552,12,10,12z"/><path d="M15,12h-1c-0.552,0-1-0.448-1-1s0.448-1,1-1h1c0.552,0,1,0.448,1,1S15.552,12,15,12z"/><path d="M19.83,7.039C19.073,2.888,15.856,1,12,1S4.927,2.888,4.17,7.039C3.501,7.19,3,7.785,3,8.5v4	c0,0.783,0.602,1.419,1.368,1.487C5.067,18.181,6.998,22,12,22c5.725,0,7.346-3.831,7.809-8.033C20.489,13.825,21,13.222,21,12.5v-4	C21,7.785,20.499,7.19,19.83,7.039z M17.293,13.707l-0.707,0.707C16.211,14.789,16,15.298,16,15.828v2.757	C16,19.367,15.367,20,14.586,20c-0.375,0-0.735-0.149-1-0.414C13.211,19.211,12.702,19,12.172,19h-0.343	c-0.53,0-1.039,0.211-1.414,0.586C10.149,19.851,9.789,20,9.414,20C8.633,20,8,19.367,8,18.586v-2.757	c0-0.53-0.211-1.039-0.586-1.414l-0.707-0.707C6.254,13.254,6,12.64,6,12c0-0.64,0.254-1.254,0.707-1.707L7,10V7V5.5	C7,4.672,7.672,4,8.5,4S10,4.672,10,5.5V6c0,1.105,0.895,2,2,2s2-0.895,2-2V5.5C14,4.672,14.672,4,15.5,4S17,4.672,17,5.5V7v3	l0.293,0.293C17.746,10.746,18,11.36,18,12C18,12.64,17.746,13.254,17.293,13.707z"/></svg>