<svg xmlns="http://www.w3.org/2000/svg"  viewBox="0 0 24 24" width="50px" height="50px"><path d="M19.5,5.375L19.5,5.375c-0.965-0.241-1.806-0.834-2.358-1.662C16.45,2.069,14.84,1,13.056,1h-2.112 C9.16,1,7.55,2.069,6.858,3.713C6.306,4.541,5.465,5.134,4.5,5.375h0C3.133,5.717,2.321,7.123,2.708,8.477l0.463,1.621 c0.169,0.59,0.472,1.11,0.86,1.548c0.147-0.659,0.924-1.01,1.524-0.611L6,11.333V9.775C6,8.41,7.337,7.446,8.632,7.877l2.103,0.701 c0.821,0.274,1.709,0.274,2.53,0l2.103-0.701C16.663,7.446,18,8.41,18,9.775v1.558l0.445-0.297c0.6-0.4,1.376-0.048,1.524,0.611 c0.388-0.438,0.691-0.958,0.86-1.548l0.463-1.621C21.679,7.123,20.867,5.717,19.5,5.375z"/><path d="M18.445,11.036L18,11.333V9.775c0-1.365-1.337-2.329-2.632-1.897l-2.103,0.701c-0.821,0.274-1.709,0.274-2.53,0 L8.632,7.877C7.337,7.446,6,8.41,6,9.775v1.558l-0.445-0.297C4.89,10.593,4,11.07,4,11.869V13c0,1.105,0.895,2,2,2v1.535 c0,0.915,0.457,1.77,1.219,2.277l0.639,0.426c0.74,0.493,1.295,1.219,1.576,2.063C9.772,22.316,10.721,23,11.79,23h0.42 c1.069,0,2.018-0.684,2.356-1.698c0.281-0.844,0.836-1.57,1.576-2.063l0.077-0.051C17.332,18.446,18,17.197,18,15.859V15 c1.105,0,2-0.895,2-2v-1.131C20,11.07,19.11,10.593,18.445,11.036z" opacity=".35"/><path d="M15.832,16.445c-0.306-0.459-0.927-0.584-1.387-0.277c-1.486,0.99-3.404,0.99-4.891,0c-0.462-0.307-1.082-0.182-1.387,0.277	c-0.307,0.46-0.183,1.08,0.277,1.387c0.281,0.187,0.573,0.347,0.872,0.486C9.806,19.311,10.818,20,12,20s2.194-0.689,2.683-1.682	c0.299-0.138,0.591-0.299,0.872-0.486C16.015,17.525,16.139,16.905,15.832,16.445z"/><path d="M10.458,11.111l-1.722-0.888c-0.491-0.255-1.094-0.062-1.347,0.431c-0.253,0.49-0.061,1.094,0.431,1.347l0.513,0.265	C8.132,12.449,8,12.706,8,13c0,0.552,0.448,1,1,1s1-0.448,1-1c0,0,0,0,0,0c0.362,0,0.711-0.197,0.889-0.542	C11.142,11.968,10.949,11.364,10.458,11.111z"/><path d="M16.61,10.654c-0.254-0.492-0.857-0.687-1.347-0.431l-1.722,0.888c-0.491,0.253-0.684,0.856-0.431,1.347	C13.289,12.802,13.638,13,14,13c0,0,0,0,0,0c0,0.552,0.448,1,1,1s1-0.448,1-1c0-0.294-0.132-0.551-0.333-0.734l0.513-0.265	C16.671,11.748,16.863,11.145,16.61,10.654z"/></svg>