<svg xmlns="http://www.w3.org/2000/svg"  viewBox="0 0 24 24" width="50px" height="50px"><path d="M19,8h-0.08c-0.496-3.46-3.514-6.105-7.136-5.997C8.393,2.105,5.693,4.738,5.118,8H5c-0.996,0.292-1.646,1.414-1.379,2.485 l0.136,0.545C3.919,11.674,4,12.336,4,13c0,0.552,0.448,1,1,1v1.895c0,1.362,0.464,1.684,1.315,2.748l1.484,1.855 C8.558,21.448,9.707,22,10.922,22h2.155c1.215,0,2.364-0.552,3.123-1.501l1.484-1.855C18.536,17.58,19,17.258,19,15.895V14 c0.552,0,1-0.448,1-1c0-0.664,0.081-1.326,0.243-1.97l0.136-0.545C20.646,9.414,19.996,8.292,19,8z" opacity=".35"/><path d="M16.61,9.654c-0.254-0.492-0.857-0.687-1.347-0.431l-1.722,0.888c-0.491,0.253-0.684,0.856-0.431,1.347	C13.289,11.802,13.638,12,14,12c0,0,0,0,0,0c0,0.552,0.448,1,1,1s1-0.448,1-1c0-0.294-0.132-0.551-0.333-0.734l0.513-0.265	C16.671,10.748,16.863,10.145,16.61,9.654z"/><path d="M10.458,10.111L8.736,9.224C8.247,8.969,7.643,9.163,7.39,9.654c-0.253,0.49-0.061,1.094,0.431,1.347l0.513,0.265	C8.132,11.449,8,11.706,8,12c0,0.552,0.448,1,1,1s1-0.448,1-1c0,0,0,0,0,0c0.362,0,0.711-0.197,0.889-0.542	C11.142,10.968,10.949,10.364,10.458,10.111z"/><path d="M13.999,18c-0.15,0-0.303-0.034-0.446-0.105c-0.973-0.486-2.133-0.486-3.105,0c-0.493,0.246-1.094,0.047-1.342-0.447 c-0.247-0.494-0.047-1.095,0.447-1.342c1.531-0.766,3.363-0.766,4.895,0c0.494,0.247,0.694,0.848,0.447,1.342 C14.719,17.798,14.366,18,13.999,18z"/></svg>