<svg xmlns="http://www.w3.org/2000/svg"  viewBox="0 0 24 24" width="50px" height="50px"><path d="M18,10.088V4H6v6.088c-0.996,0.292-1.646,1.326-1.379,2.397l0.136,0.545C4.919,13.674,5,14.336,5,15c0,0.552,0.448,1,1,1 v2.5c0,0.944,0.445,0.833,1.2,1.4l1.2,0.9C9.439,21.579,10.702,22,12,22s2.561-0.421,3.6-1.2l1.2-0.9 c0.755-0.567,1.2-0.456,1.2-1.4V16c0.552,0,1-0.448,1-1c0-0.664,0.081-1.326,0.243-1.97l0.136-0.545 C19.646,11.414,18.996,10.38,18,10.088z" opacity=".35"/><path d="M14.447,17.105c-1.532-0.766-3.362-0.766-4.895,0c-0.494,0.247-0.694,0.848-0.447,1.342 c0.247,0.494,0.846,0.694,1.342,0.447c0.973-0.486,2.133-0.486,3.105,0C13.696,18.966,13.849,19,13.999,19 c0.367,0,0.72-0.202,0.896-0.553C15.142,17.953,14.941,17.353,14.447,17.105z"/><path d="M10,14c0.552,0,1-0.448,1-1c0-0.187-0.065-0.352-0.154-0.502c0.225-0.383,0.19-0.876-0.139-1.205l-1-1 c-0.391-0.391-1.023-0.391-1.414,0s-0.391,1.023,0,1.414l0.833,0.833C9.052,12.68,9,12.831,9,13C9,13.552,9.448,14,10,14z"/><path d="M19.703,2.061C18.641,2.471,17.322,2.872,16,3c-1.185,0.115-2.587-1-4-1S9.185,3.115,8,3 C6.677,2.872,5.358,2.47,4.295,2.06C3.235,1.651,2.14,2.622,2.471,3.708c0.26,0.851,0.663,2.817,1.288,3.767 c0.762,1.157,1.099,2.545,0.908,3.918h0c0.2-0.618,0.694-1.11,1.332-1.299V16v1v1.5c0,0.944,0.445,0.833,1.2,1.4l0.682,0.512 l-0.244-1.221c-0.422-2.11-0.457-3.279-0.103-5.401c0.196-1.176-0.006-2.362-0.534-3.398C7.002,9.93,7.005,9.324,7.008,9H7v0 c0-1.296,1.264-2.253,2.491-1.836C10.305,7.439,11.152,7.577,12,7.577s1.695-0.138,2.509-0.414C15.736,6.747,17,7.704,17,9v0 h-0.008c0.003,0.324,0.006,0.93,0.007,1.392c-0.528,1.035-0.73,2.222-0.534,3.398c0.354,2.122,0.319,3.291-0.103,5.401 l-0.244,1.221L16.8,19.9c0.755-0.567,1.2-0.456,1.2-1.4V17v-1v-5.907c0.638,0.19,1.133,0.681,1.332,1.299h0 c-0.191-1.372,0.147-2.76,0.908-3.918c0.61-0.927,1.009-2.87,1.269-3.706C21.857,2.656,20.791,1.641,19.703,2.061z"/><path d="M14.293,10.293l-1,1c-0.329,0.329-0.364,0.822-0.139,1.205C13.065,12.648,13,12.813,13,13c0,0.552,0.448,1,1,1s1-0.448,1-1 c0-0.169-0.052-0.32-0.126-0.46l0.833-0.833c0.391-0.391,0.391-1.023,0-1.414S14.684,9.902,14.293,10.293z"/></svg>