<svg xmlns="http://www.w3.org/2000/svg"  viewBox="0 0 24 24" width="50px" height="50px"><path d="M18,13c0,3.314-2.686,8-6,8s-6-4.686-6-8s2.686-4,6-4S18,9.686,18,13z" opacity=".35"/><path d="M11.467,2.017C7.215,2.293,4,5.739,4,10l0,7.838c0,1.291,0.826,2.438,2.051,2.846l2.632,0.877 C9.331,21.777,10,21.295,10,20.613v-3.033c0-0.774-0.433-1.51-1.148-1.807c-1.238-0.513-2.057-1.831-1.807-3.3 c0.201-1.179,1.144-2.156,2.314-2.404c1.024-0.217,1.966,0.102,2.641,0.71c0.675-0.608,1.617-0.928,2.641-0.71 c1.17,0.248,2.113,1.225,2.314,2.404c0.251,1.47-0.569,2.787-1.807,3.3C14.433,16.069,14,16.805,14,17.579v3.033 c0,0.683,0.669,1.165,1.316,0.949l2.632-0.877C19.174,20.275,20,19.129,20,17.838V10C20,5.405,16.127,1.716,11.467,2.017z"/><circle cx="14" cy="13" r="1"/><circle cx="10" cy="13" r="1"/></svg>