<svg xmlns="http://www.w3.org/2000/svg"  viewBox="0 0 24 24" width="50px" height="50px"><path d="M20,6c-0.252-2.247-2.186-4-4.5-4c-1.422,0-2.675,0.673-3.5,1.703C11.175,2.673,9.922,2,8.5,2	C6.186,2,4.252,3.753,4,6v7.155c0,0.551-0.163,1.089-0.469,1.547l0,0C2.533,16.201,2,17.961,2,19.761v0C2,20.445,2.555,21,3.239,21	h17.522C21.445,21,22,20.445,22,19.761v0c0-1.8-0.533-3.56-1.531-5.058l0,0C20.163,14.245,20,13.706,20,13.155V6z" opacity=".35"/><path d="M14.608,5.478l-1.101,0.22C13.81,6.049,14,6.5,14,7c0,1.105-0.895,2-2,2s-2-0.895-2-2c0-0.5,0.19-0.951,0.493-1.301	l-1.101-0.22C8.155,5.231,7,6.177,7,7.44V13c0,2.301,1.446,4.297,3,5.303V21h4v-2.697c1.554-1.007,3-3.003,3-5.303V7.44	C17,6.177,15.845,5.231,14.608,5.478z M9,11c0-0.552,0.448-1,1-1s1,0.448,1,1c0,0.552-0.448,1-1,1S9,11.552,9,11z M14,12	c-0.552,0-1-0.448-1-1c0-0.552,0.448-1,1-1s1,0.448,1,1C15,11.552,14.552,12,14,12z"/></svg>