<svg xmlns="http://www.w3.org/2000/svg"  viewBox="0 0 24 24" width="50px" height="50px"><path d="M18,10.088V5H6v5.088c-0.996,0.292-1.646,1.326-1.379,2.397l0.136,0.545C4.919,13.674,5,14.336,5,15c0,0.552,0.448,1,1,1 v2.5c0,0.944,0.445,1.833,1.2,2.4l1.2,0.9C9.439,22.579,10.702,23,12,23s2.561-0.421,3.6-1.2l1.2-0.9 c0.755-0.567,1.2-1.456,1.2-2.4V16c0.552,0,1-0.448,1-1c0-0.664,0.081-1.326,0.243-1.97l0.136-0.545 C19.646,11.414,18.996,10.38,18,10.088z" opacity=".35"/><path d="M17.905,3.674c-0.292-1.275-1.334-2.305-2.612-2.586c-1.091-0.24-2.118,0.03-2.894,0.616 c-0.694,0.524-1.575,0.772-2.391,0.474C9.55,2.01,9.04,1.953,8.504,2.04c-1.18,0.192-2.158,1.123-2.422,2.283 c-1.762,2.125-1.415,7.068-1.415,7.068h0C4.923,10.602,5.652,10,6.562,10H7c0,0,0.011-2.591,0.068-3.366C7,7,7,8,9,8 c0.18,0,0.799-0.149,1,0c0.841,0.622,0.069,1.466-1,2c0,0,2,1,3-1c0.523-1.046,1.03-1.758,2-2c1.255-0.314,2,0,3-2 c0.184,1.333,0,5,0,5h0.438c0.909,0,1.638,0.602,1.894,1.392h0c0,0,0.326-4.724-1.273-6.885 C18.03,4.267,17.979,3.994,17.905,3.674z"/><path d="M13.999,19c-0.15,0-0.303-0.034-0.446-0.105c-0.973-0.486-2.133-0.486-3.105,0c-0.495,0.245-1.095,0.047-1.342-0.447 s-0.047-1.095,0.447-1.342c1.532-0.766,3.362-0.766,4.895,0c0.494,0.247,0.694,0.848,0.447,1.342 C14.719,18.798,14.366,19,13.999,19z"/><circle cx="9" cy="13" r="1"/><circle cx="15" cy="13" r="1"/></svg>