<svg xmlns="http://www.w3.org/2000/svg"  viewBox="0 0 24 24" width="50px" height="50px"><path d="M20,7h-1.09C18.433,4.163,15.972,2,13,2h-2C8.028,2,5.567,4.163,5.09,7H4C3.448,7,3,7.448,3,8 c0,0.664,0.081,1.326,0.243,1.97l0.272,1.09C3.714,11.857,4.279,12.48,5,12.788v2.827c0,0.906,0.246,1.795,0.713,2.572l1.414,2.356 C7.668,21.447,8.645,22,9.699,22h4.603c1.054,0,2.03-0.553,2.573-1.457l1.414-2.356C18.754,17.411,19,16.521,19,15.615v-2.827 c0.721-0.307,1.286-0.931,1.485-1.728l0.272-1.09C20.919,9.326,21,8.664,21,8C21,7.448,20.552,7,20,7z" opacity=".35"/><path d="M16.895,8.553c-0.248-0.494-0.849-0.692-1.342-0.447l-2,1c-0.494,0.247-0.694,0.848-0.447,1.342	C13.281,10.798,13.633,11,14,11c0,0,0,0,0,0c0,0.552,0.448,1,1,1s1-0.448,1-1c0-0.287-0.124-0.541-0.317-0.723l0.764-0.382	C16.941,9.647,17.142,9.047,16.895,8.553z"/><path d="M10.447,9.105l-2-1C7.953,7.86,7.353,8.059,7.105,8.553S7.059,9.647,7.553,9.895l0.764,0.382C8.124,10.459,8,10.713,8,11	c0,0.552,0.448,1,1,1s1-0.448,1-1c0,0,0,0,0,0c0.367,0,0.719-0.202,0.895-0.553C11.142,9.953,10.941,9.353,10.447,9.105z"/><path d="M13.999,16c-0.15,0-0.303-0.034-0.446-0.105c-0.973-0.486-2.133-0.486-3.105,0c-0.494,0.245-1.095,0.047-1.342-0.447 s-0.047-1.095,0.447-1.342c1.531-0.766,3.363-0.766,4.895,0c0.494,0.247,0.694,0.848,0.447,1.342 C14.719,15.798,14.366,16,13.999,16z"/><path d="M8,18c-0.552,0-1,0.448-1,1v1.333l0.126,0.21c0.419,0.699,1.1,1.18,1.874,1.365V19C9,18.448,8.552,18,8,18z"/><path d="M11,22h2v-4c0-0.552-0.448-1-1-1s-1,0.448-1,1V22z"/><path d="M16,18c-0.552,0-1,0.448-1,1v2.909c0.774-0.186,1.455-0.667,1.874-1.365L17,20.333V19C17,18.448,16.552,18,16,18z"/></svg>