<svg xmlns="http://www.w3.org/2000/svg"  viewBox="0 0 24 24" width="50px" height="50px"><path d="M23.97,9.758l-1-4c-0.134-0.537-0.677-0.86-1.213-0.728c-0.536,0.134-0.861,0.677-0.728,1.212l0.789,3.153l-1.174,0.469 C20.284,9.343,19.682,9,19,9c-1.105,0-2,0.895-2,2c0,0.204,0.04,0.397,0.096,0.583c-0.111,0.241-0.131,0.523-0.025,0.788 c0.026,0.066,0.067,0.121,0.105,0.178l-0.09,0.06c-1.264,0.842-2.91,0.842-4.173,0l-0.132-0.088c-0.473-0.315-1.089-0.315-1.562,0 v0c-1.329,0.886-3.055,0.892-4.393,0.025c0.037-0.056,0.077-0.11,0.103-0.175c0.106-0.266,0.086-0.548-0.025-0.788 C6.96,11.397,7,11.204,7,11c0-1.105-0.895-2-2-2C4.318,9,3.716,9.343,3.355,9.865L2.182,9.396L2.97,6.242 C3.104,5.707,2.778,5.164,2.243,5.03C1.708,4.897,1.164,5.221,1.03,5.758l-1,4c-0.121,0.484,0.135,0.985,0.599,1.171l2.641,1.056 C3.614,12.588,4.256,13,5,13c0.201,0,0.39-0.039,0.573-0.093l0.055,0.022C5.75,12.978,5.876,13,6,13 c0.066,0,0.13-0.016,0.195-0.029l1.021,5.107C7.672,20.358,9.674,22,12,22s4.328-1.642,4.784-3.922l1.021-5.107 C17.87,12.984,17.934,13,18,13c0.124,0,0.249-0.022,0.371-0.071l0.055-0.022C18.61,12.961,18.799,13,19,13 c0.744,0,1.386-0.412,1.731-1.015l2.641-1.056C23.835,10.743,24.091,10.242,23.97,9.758z" opacity=".35"/><path d="M13.999,19c-0.15,0-0.303-0.034-0.446-0.105c-0.973-0.486-2.133-0.486-3.105,0c-0.496,0.246-1.095,0.047-1.342-0.447 c-0.247-0.494-0.047-1.095,0.447-1.342c1.532-0.766,3.362-0.766,4.895,0c0.494,0.247,0.694,0.848,0.447,1.342 C14.719,18.798,14.366,19,13.999,19z"/><path d="M12,2c-4.418,0-8,2.477-8,8c0,4.323,2.199,9.217,5.272,11.145c-1.031-0.699-1.798-1.774-2.056-3.068L6,12l0.781,0.521 c1.344,0.896,3.094,0.896,4.438,0v0c0.473-0.315,1.089-0.315,1.562,0l0.132,0.088c1.264,0.842,2.91,0.842,4.173,0L18,12 l-1.216,6.078c-0.259,1.294-1.025,2.368-2.056,3.068C17.801,19.217,20,14.323,20,10C20,4.477,16.418,2,12,2z M8.541,11.426 C7.69,11.426,7,10.737,7,9.886C7,9.555,7.106,9.251,7.283,9L10,10.358C9.799,10.977,9.226,11.426,8.541,11.426z M15.318,11.191 c-0.619,0-1.137-0.406-1.318-0.964L16.453,9c0.16,0.227,0.256,0.501,0.256,0.8C16.709,10.568,16.086,11.191,15.318,11.191z"/><path d="M7.283,9C7.106,9.251,7,9.555,7,9.886c0,0.851,0.69,1.541,1.541,1.541c0.685,0,1.259-0.45,1.459-1.068L7.283,9z" opacity=".35"/><path d="M16.453,9c0.16,0.227,0.256,0.501,0.256,0.8c0,0.768-0.623,1.391-1.391,1.391c-0.619,0-1.137-0.406-1.318-0.964L16.453,9z" opacity=".35"/></svg>