<svg xmlns="http://www.w3.org/2000/svg"  viewBox="0 0 24 24" width="50px" height="50px"><path d="M20,11c-1,5.556-4,11-8,11c-4.418,0-7-6.444-8-11c-1.125-5.125,3.582-8,8-8S20.929,5.836,20,11z" opacity=".35"/><path d="M13.999,19c-0.15,0-0.303-0.034-0.446-0.105c-0.973-0.486-2.133-0.486-3.105,0c-0.493,0.245-1.094,0.047-1.342-0.447 c-0.247-0.494-0.047-1.095,0.447-1.342c1.531-0.766,3.363-0.766,4.895,0c0.494,0.247,0.694,0.848,0.447,1.342 C14.719,18.798,14.366,19,13.999,19z"/><path d="M9.918,8.922C7.79,6.961,6.235,4.459,4.948,1.867C4.63,1.226,3.686,1.327,3.511,2.021L2.546,5.84 C2.194,7.233,2.354,8.707,2.996,9.993l0.297,0.595c0.911,1.821,1.364,2.811,1.636,4.829c0.149,1.107,0.629,2.142,1.421,2.934L8,20 v-4.147c0-0.78-0.209-1.532-0.384-2.293c-0.179-0.779,0.613-1.472,1.356-1.139c0.532,0.238,1.022,0.573,1.442,0.993L11,14v-2.609 C11,10.455,10.609,9.559,9.918,8.922z M8,11c-0.552,0-1-0.448-1-1c0-0.552,0.448-1,1-1s1,0.448,1,1C9,10.552,8.552,11,8,11z"/><path d="M21.454,5.84L20.49,2.022c-0.175-0.694-1.12-0.795-1.438-0.154v0c-1.286,2.591-2.842,5.093-4.969,7.053 C13.391,9.559,13,10.455,13,11.391V14l0.586-0.586c0.42-0.42,0.91-0.755,1.442-0.993c0.76-0.34,1.573,0.394,1.342,1.194 c-0.244,0.849-0.37,1.731-0.37,2.62V20l1.65-1.65c0.831-0.831,1.319-1.932,1.441-3.101c0.21-2.024,0.784-2.998,1.698-4.826 l0.215-0.429C21.646,8.707,21.806,7.233,21.454,5.84z M16,11c-0.552,0-1-0.448-1-1c0-0.552,0.448-1,1-1s1,0.448,1,1 C17,10.552,16.552,11,16,11z"/></svg>